<svg width="24" height="24" xmlns="http://www.w3.org/2000/svg">
 <title/>

 <g>
  <title>background</title>
  <rect fill="none" id="canvas_background" height="402" width="582" y="-1" x="-1"/>
 </g>
 <g>
  <title>Layer 1</title>
  <ellipse stroke="null" ry="11.931499" rx="12.006372" id="svg_3" cy="12.031331" cx="12.006372" stroke-opacity="null" stroke-width="null" fill="#2078f4"/>
  <rect stroke="null" fill="#ffffff" id="svg_1" y="10.692059" x="6.442481" width="2.251267" height="5.058363"/>
  <path stroke="null" fill="#ffffff" id="svg_2" d="m18.307941,10.403507l-3.377745,0l0,-2.59231a0.675549,0.518462 0 0 0 -0.675549,-0.518462l-0.675549,0l-2.928688,2.787143a2.026789,1.555495 0 0 0 -0.449058,0.976373l0,4.013414a1.351098,1.036924 0 0 0 1.351098,1.036924l4.34703,0a2.026586,1.555339 0 0 0 1.817477,-0.867247l1.942082,-3.021218l0,-0.777693a1.351098,1.036924 0 0 0 -1.351098,-1.036924z"/>
 </g>
</svg>