<svg width="99.99999999999999" height="99.99999999999999" xmlns="http://www.w3.org/2000/svg">

 <g>
  <title>background</title>
  <rect fill="none" id="canvas_background" height="402" width="582" y="-1" x="-1"/>
 </g>
 <g>
  <title>Layer 1</title>
  <path id="svg_1" fill="#2a7fff" d="m50.178827,0c-27.615,0 -50,22.385 -50,50c0,27.614 22.386,50 50,50s50,-22.387 50,-50c0,-27.615 -22.387,-50 -50,-50z"/>
  <path id="svg_2" fill="#ffffff" d="m47.985,68.99c-1.021,0 -1.746,-0.787 -1.995,-0.941c-0.797,-0.49 -0.603,-0.627 -2.045,-1.057l-4.038,0.01c-0.503,0 -0.911,-0.404 -0.911,-0.902l0,-19.218c0,-0.499 0.408,-0.902 0.911,-0.902l5.342,0c0.126,-0.068 0.518,-0.402 1.213,-1.187c1.227,-1.382 2.312,-3.262 3.362,-4.927c0.849,-1.346 1.65,-2.619 2.496,-3.667c1.157,-1.439 1.883,-1.966 2.584,-2.477c0.721,-0.522 0.574,-0.641 2.009,-2.475c2.3,-2.938 2.613,-4.807 2.917,-6.615c0.054,-0.32 0.109,-0.651 0.175,-0.981c0.259,-1.307 1.405,-2.659 2.876,-2.658c0.53,-0.001 1.047,0.174 1.537,0.518c1.879,1.319 2.866,5.158 2.494,7.708c-0.383,2.619 -1.578,6.005 -2.681,7.23c-0.958,1.066 -1.41,2.122 -1.212,3.746c0.094,0.773 1.283,0.804 1.334,0.806l7.439,0.028c2.15,0.018 6.212,0.69 6.213,4.843c0,1.894 -0.77,3.071 -1.666,3.757c0.852,0.758 1.516,1.742 1.278,3.609c-0.23,1.812 -1.128,2.894 -2.173,3.448c0.577,0.771 0.967,1.886 0.712,3.397c-0.245,1.455 -1.134,2.469 -2.048,2.961c0.431,0.658 0.699,1.666 0.473,2.869c-0.533,2.822 -2.977,2.985 -4.02,3.056l-0.323,0.021l-22.253,0z"/>
  <path id="svg_4" fill="#2a7fff" d="m38.998,46.008l3.018,0l0,21l-3.018,0l0,-21z"/>
  <path id="svg_5" fill="#ffffff" d="m37.68,70.001l-11.067,0c-1.274,0 -2.312,-1.04 -2.312,-2.317l-3.304,-21.38c0,-1.279 1.037,-2.318 2.311,-2.318l14.372,0c1.275,0 2.312,1.039 2.312,2.318l0,21.38c-0.001,1.277 -1.038,2.317 -2.312,2.317z"/>
  <path id="svg_6" fill="#fff" d="m33.993,61.006c1.105,0 2.001,0.895 2.001,1.999c0,1.103 -0.896,1.997 -2.001,1.997s-2.002,-0.895 -2.002,-1.997c0,-1.105 0.896,-1.999 2.002,-1.999z"/>
  <path id="svg_8" fill="#2a7fff" d="m33.993,65.002c-1.105,0 -2.002,-0.895 -2.002,-1.997c0,-0.292 0.066,-0.568 0.179,-0.818c-0.694,0.313 -1.179,1.008 -1.179,1.818c0,1.103 0.896,1.997 2.002,1.997c0.813,0 1.51,-0.486 1.823,-1.181c-0.252,0.114 -0.529,0.181 -0.823,0.181z"/>
 </g>
</svg>