<svg width="50" height="50" xmlns="http://www.w3.org/2000/svg">
 <title/>

 <g>
  <title>background</title>
  <rect fill="none" id="canvas_background" height="402" width="582" y="-1" x="-1"/>
 </g>
 <g>
  <title>Layer 1</title>
  <g id="Page-1" fill-rule="evenodd" fill="none">
   <g id="Facebook" fill="#000000">
    <path fill="#ffffff" id="Oval-1" d="m25,50c13.80712,0 25,-11.19288 25,-25c0,-13.80712 -11.19288,-25 -25,-25c-13.80712,0 -25,11.19288 -25,25c0,13.80712 11.19288,25 25,25zm0,-3c12.15027,0 22,-9.84973 22,-22c0,-12.15027 -9.84973,-22 -22,-22c-12.15027,0 -22,9.84973 -22,22c0,12.15027 9.84973,22 22,22zm1.81452,-11l0,-11.00129l3.25422,0l0.43126,-3.7911l-3.68548,0l0.00553,-1.89749c0,-0.98878 0.10067,-1.51859 1.6225,-1.51859l2.03441,0l0,-3.79153l-3.25468,0c-3.9094,0 -5.28541,1.83909 -5.28541,4.93187l0,2.27617l-2.43687,0l0,3.7911l2.43687,0l0,11.00086l4.87765,0zm0,0"/>
   </g>
  </g>
 </g>
</svg>