<svg width="512" height="512" xmlns="http://www.w3.org/2000/svg">

 <g>
  <title>background</title>
  <rect fill="none" id="canvas_background" height="402" width="582" y="-1" x="-1"/>
 </g>
 <g>
  <title>Layer 1</title>
  <path fill="#ffffff" id="svg_2" d="m258.9,507.2c-138.5,0.7 -252.2,-114.5 -249,-255.1c3,-134 114.1,-245 252.5,-243.4c136.6,1.6 249.4,115.4 245.8,256c-3.5,133.4 -113.5,243.1 -249.3,242.5zm218.9,-248.6c-0.5,-121.3 -95.9,-217.8 -213.3,-220.5c-123.3,-2.8 -223.5,94.8 -224.1,219.5c-0.6,121.2 95.7,217.2 212.8,220.3c120.7,3.3 223.2,-93.3 224.6,-219.3z"/>
  <path fill="#ffffff" id="svg_3" d="m414.3,226.5c4.7,15.6 4.6,31.5 3.4,47.2c-2,27.2 -9.1,53.1 -23.5,76.6c-25.8,42.1 -63.6,66.4 -112.1,73.6c-49,7.3 -93.3,-4.7 -131.8,-35.9c-34.2,-27.7 -54.3,-63.8 -60.5,-107.4c-10.4,-73.6 27.5,-145.6 95.2,-176.2c63.6,-28.7 123.8,-20.4 179.2,22.4c1.3,1 2.5,2.2 3.5,3.1c-16.3,16.3 -32.6,32.4 -48.6,48.4c-7.4,-4.1 -15,-9.3 -23.3,-12.9c-61.1,-26.7 -131.6,15 -137.9,81.3c-4.9,51.1 26.6,96.3 76.8,107.6c32.4,7.3 63,2.1 89.1,-20.2c12.7,-10.8 20.1,-25 23.7,-42.1c-15.4,0 -30.3,0 -45.2,0c-14.8,0 -29.6,0 -44.9,0c0,-21.8 0,-43.4 0,-65.3c52.1,-0.2 104.3,-0.2 156.9,-0.2z"/>
 </g>
</svg>