<svg width="512" height="512" xmlns="http://www.w3.org/2000/svg">

 <g>
  <title>background</title>
  <rect fill="none" id="canvas_background" height="402" width="582" y="-1" x="-1"/>
 </g>
 <g>
  <title>Layer 1</title>
  <path fill="#ffffff" id="svg_2" d="m259,507.2c-138.6,0.7 -252.3,-114.5 -249.1,-255.1c3,-134 114.1,-245 252.4,-243.4c136.6,1.6 249.4,115.4 245.8,256c-3.4,133.4 -113.4,243.1 -249.1,242.5zm-218.8,-249c1.1,125.3 102.4,221.6 222.2,219.8c116.2,-1.8 215.2,-96.4 215.3,-220c0,-125.2 -102.1,-222 -222.2,-220c-116.4,1.9 -214.5,96.7 -215.3,220.2z"/>
  <path fill="#ffffff" id="svg_3" d="m326.6,375.6c0,-2.2 0,-4.1 0,-6.1c0,-26.7 0.1,-53.3 -0.1,-80c0,-4.6 -0.4,-9.4 -1.5,-13.8c-3.6,-14.8 -15.6,-22.2 -32.9,-20.8c-12.8,1 -24.3,12.4 -25.2,25.6c-0.6,8 -0.4,16 -0.5,24c-0.1,21.7 0,43.3 0,65c0,2 0,3.9 0,6.2c-16.2,0 -32,0 -48.1,0c0,-52 0,-104.1 0,-156.4c15.7,0 31.4,0 47.7,0c0,6.1 0,12.3 0,19.8c1.7,-2 2.7,-3 3.4,-4.2c21.6,-32.4 80.2,-28.9 97.6,9.3c4.8,10.6 7.7,21.7 7.8,33.3c0.3,32.1 0.2,64.3 0.2,96.5c0,0.5 -0.1,1 -0.3,1.8c-15.8,-0.2 -31.7,-0.2 -48.1,-0.2z"/>
  <path fill="#ffffff" id="svg_4" d="m187.5,375.8c-16.1,0 -31.7,0 -47.7,0c0,-51.9 0,-103.6 0,-155.6c15.9,0 31.6,0 47.7,0c0,51.7 0,103.4 0,155.6z"/>
  <path fill="#ffffff" id="svg_5" d="m162.2,189c-14.3,-0.1 -24.3,-10.5 -24.2,-24.9s10.5,-24.3 25.4,-24.2c14.2,0.1 24.5,10.6 24.3,24.9c0,14.2 -10.7,24.3 -25.5,24.2z"/>
 </g>
</svg>