<svg width="50" height="50" xmlns="http://www.w3.org/2000/svg">
 <title/>

 <g>
  <title>background</title>
  <rect fill="none" id="canvas_background" height="402" width="582" y="-1" x="-1"/>
 </g>
 <g>
  <title>Layer 1</title>
  <g id="Page-1" fill-rule="evenodd" fill="none">
   <g id="YouTube" fill="#000000">
    <path fill="#ffffff" id="Oval-1" d="m50,25c0,-13.80712 -11.19288,-25 -25,-25c-13.80712,0 -25,11.19288 -25,25c0,13.80712 11.19288,25 25,25c13.80712,0 25,-11.19288 25,-25zm-3,0c0,-12.15027 -9.84973,-22 -22,-22c-12.15027,0 -22,9.84973 -22,22c0,12.15027 9.84973,22 22,22c12.15027,0 22,-9.84973 22,-22zm-10.23167,5.76548c-0.2985,1.29722 -1.35961,2.25371 -2.63642,2.39638c-3.02443,0.33795 -6.08551,0.33962 -9.13345,0.33795c-3.04765,0.00167 -6.10902,0 -9.13317,-0.33795c-1.27708,-0.14267 -2.33764,-1.09916 -2.63586,-2.39638c-0.42466,-1.84751 -0.42466,-3.86342 -0.42466,-5.7652c0,-1.90206 0.00503,-3.91825 0.42942,-5.76576c0.2985,-1.29722 1.35905,-2.25399 2.63586,-2.39638c3.02443,-0.33795 6.08551,-0.33962 9.13345,-0.33795c3.04765,-0.00167 6.10901,0 9.13317,0.33795c1.27708,0.14239 2.33819,1.09916 2.63641,2.39638c0.42467,1.84751 0.42215,3.8637 0.42215,5.76576c0,1.90178 -0.00251,3.91769 -0.4269,5.7652zm-13.96356,-10.26548l6.75,3.89711l-6.75,3.89712l0,-7.79423zm0,0"/>
   </g>
  </g>
 </g>
</svg>