<svg width="100" height="100" xmlns="http://www.w3.org/2000/svg">
 <title/>

 <g>
  <title>background</title>
  <rect fill="none" id="canvas_background" height="402" width="582" y="-1" x="-1"/>
 </g>
 <g>
  <title>Layer 1</title>
  <path fill="#2a7fff" id="svg_1" d="m80,18l-60,0a9,9 0 0 0 -9,9l0,40a9,9 0 0 0 9,9l51.76,0l12.12,12.12a3,3 0 0 0 2.12,0.88a2.88,2.88 0 0 0 1.15,-0.23a3,3 0 0 0 1.85,-2.77l0,-59a9,9 0 0 0 -9,-9zm-51,20l19,0a3,3 0 0 1 0,6l-19,0a3,3 0 0 1 0,-6zm42,18l-42,0a3,3 0 0 1 0,-6l42,0a3,3 0 0 1 0,6z"/>
 </g>
</svg>