<svg viewBox="8 11 27 27" width="512" height="512" xmlns="http://www.w3.org/2000/svg">
 <title/>
 <g>
      <title>background</title>
      <rect
        fill="none"
        id="canvas_background"
        height="402"
        width="582"
        y="-1"
        x="-1"
      />
    </g>
    <g>
      <path
        id="svg_2"
        fill="#2a7fff"
        d="m35.54224,22.22021l-2.80225,0l0,-2.80273c0,-0.19336 -0.15674,-0.34961 -0.3501,-0.34961s-0.3501,0.15625 -0.3501,0.34961l0,2.80273l-2.80225,0c-0.19336,0 -0.3501,0.15625 -0.3501,0.34961s0.15674,0.34961 0.3501,0.34961l2.80225,0l0,2.80273c0,0.19336 0.15674,0.34961 0.3501,0.34961s0.3501,-0.15625 0.3501,-0.34961l0,-2.80273l2.80225,0c0.19336,0 0.3501,-0.15625 0.3501,-0.34961s-0.15674,-0.34961 -0.3501,-0.34961z"
      />
      <path
        id="svg_3"
        fill="#2a7fff"
        d="m16.92782,23.38412c0.29395,0.78223 1.79785,4.4043 4.45752,4.46484c0.00244,0 0.00537,0 0.00781,0s0.00537,0 0.00781,0c2.65967,-0.06055 4.16309,-3.68164 4.45703,-4.46387c0.5376,-0.28613 0.97266,-0.91016 1.15576,-1.67285c0.1958,-0.81543 0.06104,-1.59082 -0.36035,-2.07227c-0.19971,-0.22852 -0.47266,-0.44238 -0.75244,-0.64355c0.01807,-0.14746 0.02734,-0.30859 0.02734,-0.48633c0,-2.49805 -2.03223,-4.5293 -4.53027,-4.5293c-2.50635,0 -4.54541,2.03125 -4.54541,4.5293c0,0.17871 0.00928,0.34082 0.02783,0.49121c-0.27539,0.19727 -0.5459,0.4082 -0.74707,0.63867c-0.42188,0.48145 -0.55713,1.25586 -0.36133,2.07227c0.18311,0.7627 0.61817,1.38672 1.15577,1.67188z"
      />
      <path
        id="svg_4"
        fill="#2a7fff"
        d="m30.11336,29.41927l-4.37598,-2.22461c-0.13037,-0.06836 -0.28906,-0.0459 -0.39697,0.05469c-2.72412,2.52246 -5.14014,2.51367 -7.49902,0.0166c-0.1123,-0.12012 -0.29248,-0.14551 -0.43262,-0.06055l-3.61572,2.13965l-0.38428,0.22168c-0.01172,0.00684 -0.02344,0.01367 -0.03369,0.02148c-0.64355,0.46777 -1.02783,1.21289 -1.02783,1.99512c0,1.34961 1.09131,2.44727 2.43311,2.44727l14.20996,0c1.34961,0 2.44775,-1.09766 2.44775,-2.44727c0,-0.89941 -0.50146,-1.72558 -1.32471,-2.16406z"
      />
    </g>
</svg>