<svg width="24" height="24" xmlns="http://www.w3.org/2000/svg" clip-rule="evenodd">

 <g>
  <title>background</title>
  <rect fill="none" id="canvas_background" height="402" width="582" y="-1" x="-1"/>
 </g>
 <g>
  <title>Layer 1</title>
  <rect fill="none" y="0" x="0" width="24" id="Artboard2" height="24"/>
  <path id="svg_2" fill="#eb4134" d="m4.93,4.93c1.81,-1.81 4.31,-2.93 7.07,-2.93c2.76,0 5.26,1.12 7.07,2.93l-2.828,2.828c-1.086,-1.086 -2.586,-1.758 -4.242,-1.758c-1.656,0 -3.156,0.672 -4.242,1.758l-2.828,-2.828z"/>
  <path id="svg_3" fill="#34aa51" d="m16.242,16.242l2.828,2.828c-1.81,1.81 -4.31,2.93 -7.07,2.93c-2.76,0 -5.26,-1.12 -7.07,-2.93l2.828,-2.828c1.086,1.086 2.586,1.758 4.242,1.758c1.656,0 3.156,-0.672 4.242,-1.758z"/>
  <path id="svg_4" fill="#fbbe04" d="m4.93,4.93l2.828,2.828c-1.086,1.086 -1.758,2.586 -1.758,4.242c0,1.656 0.672,3.156 1.758,4.242l-2.828,2.828c-1.81,-1.81 -2.93,-4.31 -2.93,-7.07c0,-2.76 1.12,-5.26 2.93,-7.07z"/>
  <path id="svg_5" fill="#4186f7" d="m12,10l9.8,0c0.131,0.646 0.2,1.315 0.2,2c0,0.685 -0.069,1.354 -0.2,2c-0.399,1.958 -1.369,3.709 -2.73,5.07l-2.828,-2.828c0.626,-0.626 1.115,-1.39 1.416,-2.242l-5.658,0l0,-4z"/>
 </g>
</svg>