<svg width="137.29999999999998" height="139.3" xmlns="http://www.w3.org/2000/svg" xmlns:xlink="http://www.w3.org/1999/xlink">
 <g>
  <title>background</title>
  <rect fill="none" id="canvas_background" height="402" width="582" y="-1" x="-1"/>
 </g>
 <g>
  <title>Layer 1</title>
  <circle fill="#616b8f" r="66.2" id="XMLID_68_" cy="69.6" cx="68.5" class="st0"/>
  <defs>
   <circle r="66.2" id="XMLID_56_" cy="69.6" cx="68.6"/>
  </defs>
  <clipPath id="XMLID_79_">
   <use id="svg_1" xlink:href="#XMLID_56_"/>
  </clipPath>
  <polygon fill="#070808" clip-path="url(#XMLID_79_)" opacity="0.19" points="92.8,38 134.7,74.1 133.9,135.8 89.2,133.9 41.7,100.2   " id="XMLID_67_" class="st1"/>
  <path fill="#ff9800" id="XMLID_134_" d="m92.8,38c0,0 1.6,0.7 1.7,2.2l-1.9,0l-46.3,0c0,0 -6.5,5 0,10.2l46.4,0l1.2,0c0,0 1.7,-0.4 1.7,2l0,46.5c0,0 -0.1,1.5 -1.9,2.4l-49.7,0c0,0 -2.3,-0.4 -2.3,-3.1l0,-57c0,0 0.4,-3 3.2,-3.1l47.9,0l0,-0.1z" class="st2"/>
  <path fill="#ffffff" id="XMLID_52_" d="m92.5,40.2l0,10.2l-46.2,0c0,0 -6.4,-4.4 0,-10.2l46.2,0z" class="st3"/>
  <path fill="#070808" opacity="0.19" id="XMLID_50_" d="m41.7,52.8c0,0 1,1.1 3.3,1.1l49.2,0c0,0 0.8,-0.1 1.4,-1.4l0,10.7c0,0 -1.1,1.2 -4.5,1.2l-46.4,0c0,0 -2.5,-0.4 -3.1,-1.3l0,-10.3l0.1,0z" class="st4"/>
  <path fill="#070808" opacity="0.19" id="XMLID_43_" d="m41.7,84.7c0,0 1,1.1 3.3,1.1l49.2,0c0,0 0.8,-0.1 1.4,-1.4l0,10.7c0,0 -1.1,1.2 -4.5,1.2l-46.4,0c0,0 -2.5,-0.4 -3.1,-1.3l0,-10.3l0.1,0z" class="st4"/>
  <polygon fill="#22728e" points="76.2,50.4 76.2,79.9 81.4,74.6 86.3,79.5 86.3,50.4   " id="XMLID_40_" class="st5"/>
  <path stroke-miterlimit="10" stroke-width="0.5" stroke="#ffffff" fill="none" id="XMLID_33_" d="m-1.3,24.4" class="st6"/>
 </g>
</svg>