<svg width="24" height="24" xmlns="http://www.w3.org/2000/svg">
 <title/>

 <g>
  <title>background</title>
  <rect fill="none" id="canvas_background" height="402" width="582" y="-1" x="-1"/>
 </g>
 <g>
  <title>Layer 1</title>
  <path id="svg_1" fill="#ffffff" d="m12,21.373c-1.3848,-0.0009 -3.5459,-1.6816 -4.1748,-2.1967a1,1 0 1 1 1.2666,-1.5479a7.9269,7.9269 0 0 0 2.9121,1.7446c1.2388,-0.0585 8.2847,-5.1572 8.2847,-10.92964a6.51217,6.51217 0 0 0 -0.25,-1.79492a3.68088,3.68088 0 0 0 -3.5327,-2.64844a3.88133,3.88133 0 0 0 -3.5772,2.74463a1.00007,1.00007 0 0 1 -1.8569,0a3.88179,3.88179 0 0 0 -3.57717,-2.74463a3.682,3.682 0 0 0 -3.5332,2.648a6.53831,6.53831 0 0 0 -0.24952,1.79541a10.92792,10.92792 0 0 0 2.70752,6.49559a0.99971,0.99971 0 1 1 -1.55664,1.2548a12.86383,12.86383 0 0 1 -3.15088,-7.75044a8.52873,8.52873 0 0 1 0.32666,-2.34473a5.69047,5.69047 0 0 1 5.45606,-4.09863a5.54228,5.54228 0 0 1 4.50537,2.32715a5.54245,5.54245 0 0 1 4.5059,-2.32715a5.68919,5.68919 0 0 1 5.4555,4.09814a8.50561,8.50561 0 0 1 0.3272,2.34522c0,6.81734 -7.9151,12.92964 -10.2886,12.92964z"/>
 </g>
</svg>