<svg width="1792" height="1792" xmlns="http://www.w3.org/2000/svg">

 <g>
  <title>background</title>
  <rect fill="none" id="canvas_background" height="402" width="582" y="-1" x="-1"/>
 </g>
 <g>
  <title>Layer 1</title>
  <path fill="#2a7fff" id="svg_1" d="m1246,876q-8,20 -30,20l-192,0l0,352q0,14 -9,23t-23,9l-192,0q-14,0 -23,-9t-9,-23l0,-352l-192,0q-14,0 -23,-9t-9,-23q0,-12 10,-24l319,-319q11,-9 23,-9t23,9l320,320q15,16 7,35zm-350,-524q-148,0 -273,73t-198,198t-73,273t73,273t198,198t273,73t273,-73t198,-198t73,-273t-73,-273t-198,-198t-273,-73zm768,544q0,209 -103,385.5t-279.5,279.5t-385.5,103t-385.5,-103t-279.5,-279.5t-103,-385.5t103,-385.5t279.5,-279.5t385.5,-103t385.5,103t279.5,279.5t103,385.5z"/>
 </g>
</svg>