<svg width="32" height="32" xmlns="http://www.w3.org/2000/svg">

 <g>
  <title>background</title>
  <rect fill="none" id="canvas_background" height="402" width="582" y="-1" x="-1"/>
 </g>
 <g>
  <title>Layer 1</title>
  <path fill="#ffffff" id="svg_2" d="m16,12.023c-2.196,0 -3.977,1.781 -3.977,3.977c0,2.196 1.78,3.977 3.977,3.977c2.196,0 3.977,-1.781 3.977,-3.977c0,-2.196 -1.781,-3.977 -3.977,-3.977zm0,5.954c-1.09,0 -1.977,-0.887 -1.977,-1.977c0,-1.09 0.887,-1.977 1.977,-1.977c1.09,0 1.977,0.887 1.977,1.977c0,1.09 -0.887,1.977 -1.977,1.977z"/>
  <path fill="#ffffff" id="svg_3" d="m26,17l0,-2l-2.069,0c-0.182,-1.46 -0.757,-2.794 -1.617,-3.9l1.464,-1.464l-1.414,-1.414l-1.464,1.464c-1.106,-0.86 -2.44,-1.434 -3.9,-1.617l0,-2.069l-2,0l0,2.069c-1.46,0.182 -2.794,0.757 -3.9,1.617l-1.464,-1.464l-1.414,1.414l1.464,1.464c-0.86,1.106 -1.434,2.44 -1.617,3.9l-2.069,0l0,2l2.069,0c0.182,1.46 0.757,2.794 1.617,3.9l-1.464,1.464l1.414,1.414l1.464,-1.464c1.106,0.859 2.441,1.434 3.9,1.617l0,2.069l2,0l0,-2.069c1.46,-0.182 2.794,-0.757 3.9,-1.617l1.464,1.464l1.414,-1.414l-1.464,-1.464c0.859,-1.106 1.434,-2.441 1.617,-3.9l2.069,0zm-10,5c-3.308,0 -6,-2.692 -6,-6s2.692,-6 6,-6s6,2.692 6,6s-2.692,6 -6,6z"/>
 </g>
</svg>