<svg width="150" height="150" xmlns="http://www.w3.org/2000/svg">

 <g>
  <title>background</title>
  <rect fill="none" id="canvas_background" height="402" width="582" y="-1" x="-1"/>
 </g>
 <g>
  <title>Layer 1</title>
  <circle id="svg_2" r="75" opacity="0.15" fill="#4e7ac1" cy="75.013" cx="75.009"/>
  <path id="svg_3" opacity="0.15" fill="#60C3AD" d="m75.009,0.013l0,150c41.42,0 74.998,-33.579 74.998,-75.001c0,-41.421 -33.578,-74.999 -74.998,-74.999z"/>
  <circle id="svg_4" r="65.488" fill="#4e7ac1" cy="75.012" cx="75.009"/>
  <path id="svg_5" fill="#4e7ac1" d="m75.009,9.524l0,130.976c36.166,0 65.486,-29.319 65.486,-65.488c0,-36.167 -29.32,-65.488 -65.486,-65.488z"/>
  <path id="svg_7" fill="#4e7ac1" d="m9.593,72.085c-0.041,0.971 -0.072,1.945 -0.072,2.927c0,36.169 29.318,65.488 65.488,65.488l0,-5.853c-35.188,0 -63.883,-27.752 -65.416,-62.562z"/>
  <path id="svg_8" fill="#4e7ac1" d="m140.423,72.085c-1.533,34.81 -30.229,62.562 -65.414,62.562l0,5.853c36.166,0 65.486,-29.319 65.486,-65.488c0,-0.982 -0.029,-1.956 -0.072,-2.927z"/>
  <path id="svg_9" fill="#FFFFFF" d="m74.996,73.848c-6.655,0 -40.949,-21.637 -40.949,-21.637l0,-2.035c0,-3.761 3.056,-6.816 6.824,-6.816l68.25,0c3.771,0 6.826,3.056 6.826,6.816l-0.053,2.408c0.001,0 -33.921,21.264 -40.898,21.264zm0,5.372c7.297,0 40.898,-20.412 40.898,-20.412l0.053,41.896c0,3.761 -3.055,6.816 -6.826,6.816l-68.25,0c-3.766,0 -6.824,-3.056 -6.824,-6.816l0.055,-41.896c-0.002,0 34.239,20.412 40.894,20.412z"/>
 </g>
</svg>