<svg width="50" height="50" xmlns="http://www.w3.org/2000/svg">

 <g>
  <title>background</title>
  <rect fill="none" id="canvas_background" height="402" width="582" y="-1" x="-1"/>
 </g>
 <g>
  <title>Layer 1</title>
  <rect id="svg_4" fill="#4de0f9" y="31.3" x="31.9" width="9.5" height="3.9"/>
  <polygon id="svg_7" fill="#4de0f9" points="37.2,19.3 41.4,16.5 41.4,35.1 37.2,35.1    "/>
  <path id="svg_10" fill="#2a7fff" d="m40.5,34.1l-30.5,0l0,-19.8l30.5,0l0,19.8zm-29.3,-1.2l28.1,0l0,-17.4l-28.1,0l0,17.4z"/>
  <rect id="svg_13" fill="#2a7fff" y="12.7" x="35.4" width="1.2" transform="matrix(0.5369,0.8436,-0.8436,0.5369,31.3013,-22.358) " height="9.2"/>
  <rect id="svg_16" fill="#2a7fff" y="16.7" x="9.9" width="9" transform="matrix(0.8439,0.5365,-0.5365,0.8439,11.5246,-5.0365) " height="1.2"/>
  <rect id="svg_19" fill="#4de0f9" y="27.1" x="12.8" width="1.5" height="4.6"/>
  <rect id="svg_22" fill="#4de0f9" y="24.2" x="12.8" width="1.5" height="1.5"/>
  <path id="svg_25" fill="#4de0f9" d="m26.2,18.8c-0.1,0 -0.2,0 -0.3,0c1.4,1.2 2.3,2.9 2.3,4.9c0,3.4 -2.7,6.2 -6.1,6.4c1.1,0.9 2.6,1.5 4.1,1.5c3.5,0 6.4,-2.9 6.4,-6.4s-2.9,-6.4 -6.4,-6.4z"/>
  <path id="svg_28" fill="#2a7fff" d="m25.2,31.3c-3.9,0 -7,-3.1 -7,-7c0,-3.9 3.1,-7 7,-7s7,3.1 7,7c0,3.8 -3.1,7 -7,7zm0,-12.9c-3.2,0 -5.8,2.6 -5.8,5.8s2.6,5.8 5.8,5.8s5.8,-2.6 5.8,-5.8s-2.6,-5.8 -5.8,-5.8z"/>
  <polygon id="svg_32" fill="#2a7fff" points="23,24.4 22.1,23.6 25.3,20.4 28.5,23.6 27.7,24.4 25.3,22.1     "/>
  <rect id="svg_35" fill="#2a7fff" y="21.3" x="24.7" width="1.2" height="5.8"/>
 </g>
</svg>