<svg width="512" height="512" xmlns="http://www.w3.org/2000/svg">
 <title/>

 <g>
  <title>background</title>
  <rect fill="none" id="canvas_background" height="402" width="582" y="-1" x="-1"/>
 </g>
 <g>
  <title>Layer 1</title>
  <path fill="#ffffff" id="svg_1" d="m348.45,432.7l-86.65,0a141.5,141.5 0 0 1 -49.52,-8.9l-67.5,-25.07a15,15 0 0 1 10.45,-28.12l67.49,25.07a111.79,111.79 0 0 0 39.08,7l86.65,0a14.21,14.21 0 1 0 0,-28.42a15,15 0 0 1 0,-30l20.45,0a14.21,14.21 0 1 0 0,-28.42a15,15 0 0 1 0,-30l20.44,0a14.21,14.21 0 0 0 10.05,-24.26a14.08,14.08 0 0 0 -10.05,-4.16a15,15 0 0 1 0,-30l20.45,0a14.21,14.21 0 0 0 10,-24.26a14.09,14.09 0 0 0 -10,-4.17l-141.64,0a15,15 0 0 1 -13.15,-22.25a100.2,100.2 0 0 0 9.2,-29.33c3.39,-21.87 -0.79,-41.64 -12.42,-58.76a12.28,12.28 0 0 0 -22.33,7c0.49,51.38 -23.25,88.72 -68.65,108a15,15 0 1 1 -11.72,-27.61c18.72,-8 32.36,-19.75 40.55,-35.08c6.68,-12.51 10,-27.65 9.83,-45c-0.15,-18.96 11.54,-34.96 29.72,-40.62s36.81,0.78 47.45,16.46c24.71,36.36 20.25,74.1 13.48,97.21l119.68,0a44.21,44.21 0 0 1 19.59,83.84a44.27,44.27 0 0 1 -20.44,58.42a44.27,44.27 0 0 1 -20.45,58.43a44.23,44.23 0 0 1 -40,63l-0.04,0z"/>
  <path fill="#ffffff" id="svg_2" d="m155,410.49l-85.87,0a15,15 0 0 1 -15,-15l0,-205.63a15,15 0 0 1 15,-15l85.87,0a15,15 0 0 1 15,15l0,205.63a15,15 0 0 1 -15,15zm-70.84,-30l55.84,0l0,-175.63l-55.87,0l0.03,175.63z"/>
 </g>
</svg>