<svg width="48" height="48" xmlns="http://www.w3.org/2000/svg">

 <g>
  <title>background</title>
  <rect fill="none" id="canvas_background" height="402" width="582" y="-1" x="-1"/>
 </g>
 <g>
  <title>Layer 1</title>
  <circle stroke-miterlimit="10" stroke-linejoin="round" stroke-linecap="round" stroke-width="2" stroke="#2a7fff" fill="none" id="svg_2" r="12.244" cy="24" cx="24" class="st1"/>
  <path stroke-miterlimit="10" stroke-linejoin="round" stroke-linecap="round" stroke-width="2" stroke="#2a7fff" fill="none" id="svg_4" d="m20.79997,28.7134l0.64869,0c0.19798,0.12818 0.38947,0.26632 0.59061,0.38961c0.08706,0.05337 0.1867,0.12792 0.2855,0.15599l6.17811,0.00492c0.48661,0 0.94153,-0.29707 0.94153,-0.78368c0,-0.4919 -0.04521,-0.96604 -0.53182,-0.96604l0.05691,0c0.4919,0 0.85057,-0.44298 0.85057,-0.93488c0,-0.48661 0.0542,-0.87575 -0.4377,-0.87575l0.17074,0c0.48661,0 0.74575,-0.425 0.74575,-0.9169c0,-0.48661 0.06355,-0.8775 -0.42306,-0.8775l0.17007,0c0.48661,0 0.55362,-0.42853 0.55362,-0.91514c0,-0.4919 -0.26357,-0.85013 -0.75018,-0.85013l-4.60342,0.00751c0.10703,-0.14717 0.65108,-2.1683 0.61094,-2.5563s-0.48524,-1.9846 -0.48524,-1.9846c-0.71654,-0.65653 -1.33023,-0.59953 -1.84635,0.1338l0,2.1407c0,0 -1.84635,3.09063 -1.87311,3.15084s-0.89224,0.59864 -0.89224,0.59864" class="st1"/>
  <path stroke-miterlimit="10" stroke-linejoin="round" stroke-linecap="round" stroke-width="2" stroke="#2a7fff" fill="none" id="svg_5" d="m19.42525,29.79453l-0.6925,0c-0.7371,0 -1.33464,-0.59754 -1.33464,-1.33464l0,-4.17696c0,-0.7371 0.59754,-1.33464 1.33464,-1.33464l0.6925,0c0.7371,0 1.33464,0.59754 1.33464,1.33464l0,4.17696c0,0.7371 -0.59754,1.33464 -1.33464,1.33464z" class="st1"/>
 </g>
</svg>